<?xml version="1.0" encoding="UTF-8" standalone="no"?>
<!DOCTYPE svg PUBLIC "-//W3C//DTD SVG 1.1//EN"
 "http://www.w3.org/Graphics/SVG/1.1/DTD/svg11.dtd">
<!-- Generated by graphviz version 2.43.0 (0)
 -->
<!-- Title: SPSCRingBuffer Pages: 1 -->
<svg width="707pt" height="414pt"
 viewBox="0.00 0.00 706.50 414.00" xmlns="http://www.w3.org/2000/svg" xmlns:xlink="http://www.w3.org/1999/xlink">
<g id="graph0" class="graph" transform="scale(1 1) rotate(0) translate(4 410)">
<title>SPSCRingBuffer</title>
<polygon fill="white" stroke="transparent" points="-4,4 -4,-410 702.5,-410 702.5,4 -4,4"/>
<!-- Interface -->
<g id="node1" class="node">
<title>Interface</title>
<polygon fill="#eef2ff" stroke="#4338ca" points="233.5,-0.5 233.5,-88.5 440.5,-88.5 440.5,-0.5 233.5,-0.5"/>
<text text-anchor="middle" x="337" y="-72.7" font-family="Helvetica,sans-Serif" font-size="11.00">«concept»</text>
<text text-anchor="middle" x="337" y="-60.7" font-family="Helvetica,sans-Serif" font-size="11.00">SPSCQueue&lt;T&gt;</text>
<polyline fill="none" stroke="#4338ca" points="233.5,-50.5 440.5,-50.5 "/>
<text text-anchor="start" x="244.5" y="-34.7" font-family="Helvetica,sans-Serif" font-size="11.00">+ try_push(item: const T&amp;) : bool</text>
<text text-anchor="start" x="244.5" y="-22.7" font-family="Helvetica,sans-Serif" font-size="11.00">+ try_pop(out: T&amp;) : bool</text>
<text text-anchor="start" x="244.5" y="-10.7" font-family="Helvetica,sans-Serif" font-size="11.00">+ capacity() : size_t</text>
</g>
<!-- LockFree -->
<g id="node2" class="node">
<title>LockFree</title>
<polygon fill="#ecfdf5" stroke="#047857" points="97.5,-153.5 97.5,-303.5 336.5,-303.5 336.5,-153.5 97.5,-153.5"/>
<text text-anchor="middle" x="217" y="-287.7" font-family="Helvetica,sans-Serif" font-size="11.00">LockFreeSPSCRingBuffer&lt;T&gt;</text>
<polyline fill="none" stroke="#047857" points="97.5,-277.5 336.5,-277.5 "/>
<text text-anchor="start" x="108.5" y="-261.7" font-family="Helvetica,sans-Serif" font-size="11.00">&#45; capacity_ : const size_t</text>
<text text-anchor="start" x="108.5" y="-249.7" font-family="Helvetica,sans-Serif" font-size="11.00">&#45; mask_ : const size_t</text>
<text text-anchor="start" x="108.5" y="-237.7" font-family="Helvetica,sans-Serif" font-size="11.00">&#45; buffer_ : T*</text>
<text text-anchor="start" x="108.5" y="-225.7" font-family="Helvetica,sans-Serif" font-size="11.00">&#45; head_ : atomic&lt;size_t&gt; «alignas(64)»</text>
<text text-anchor="start" x="108.5" y="-213.7" font-family="Helvetica,sans-Serif" font-size="11.00">&#45; tail_ : atomic&lt;size_t&gt; «alignas(64)»</text>
<polyline fill="none" stroke="#047857" points="97.5,-203.5 336.5,-203.5 "/>
<text text-anchor="start" x="108.5" y="-187.7" font-family="Helvetica,sans-Serif" font-size="11.00">+ try_push(item: const T&amp;) : bool</text>
<text text-anchor="start" x="108.5" y="-175.7" font-family="Helvetica,sans-Serif" font-size="11.00">+ try_pop(out: T&amp;) : bool</text>
<text text-anchor="start" x="108.5" y="-163.7" font-family="Helvetica,sans-Serif" font-size="11.00">+ capacity() : size_t</text>
</g>
<!-- LockFree&#45;&gt;Interface -->
<g id="edge1" class="edge">
<title>LockFree&#45;&gt;Interface</title>
<path fill="none" stroke="black" stroke-dasharray="5,2" d="M265.81,-153.47C278.3,-134.53 291.46,-114.57 303.02,-97.03"/>
<polygon fill="none" stroke="black" points="305.98,-98.91 308.56,-88.63 300.14,-95.05 305.98,-98.91"/>
<text text-anchor="middle" x="341.5" y="-121" font-family="Helvetica,sans-Serif" font-size="10.00">satisfies</text>
<text text-anchor="middle" x="341.5" y="-110" font-family="Helvetica,sans-Serif" font-size="10.00">(static duck typing)</text>
</g>
<!-- Mutex -->
<g id="node3" class="node">
<title>Mutex</title>
<polygon fill="#fff7ed" stroke="#c2410c" points="354.5,-147.5 354.5,-309.5 561.5,-309.5 561.5,-147.5 354.5,-147.5"/>
<text text-anchor="middle" x="458" y="-293.7" font-family="Helvetica,sans-Serif" font-size="11.00">MutexSPSCRingBuffer&lt;T&gt;</text>
<polyline fill="none" stroke="#c2410c" points="354.5,-283.5 561.5,-283.5 "/>
<text text-anchor="start" x="365.5" y="-267.7" font-family="Helvetica,sans-Serif" font-size="11.00">&#45; capacity_ : const size_t</text>
<text text-anchor="start" x="365.5" y="-255.7" font-family="Helvetica,sans-Serif" font-size="11.00">&#45; mask_ : const size_t</text>
<text text-anchor="start" x="365.5" y="-243.7" font-family="Helvetica,sans-Serif" font-size="11.00">&#45; buffer_ : T*</text>
<text text-anchor="start" x="365.5" y="-231.7" font-family="Helvetica,sans-Serif" font-size="11.00">&#45; mutex_ : std::mutex</text>
<text text-anchor="start" x="365.5" y="-219.7" font-family="Helvetica,sans-Serif" font-size="11.00">&#45; head_ : size_t</text>
<text text-anchor="start" x="365.5" y="-207.7" font-family="Helvetica,sans-Serif" font-size="11.00">&#45; tail_ : size_t</text>
<polyline fill="none" stroke="#c2410c" points="354.5,-197.5 561.5,-197.5 "/>
<text text-anchor="start" x="365.5" y="-181.7" font-family="Helvetica,sans-Serif" font-size="11.00">+ try_push(item: const T&amp;) : bool</text>
<text text-anchor="start" x="365.5" y="-169.7" font-family="Helvetica,sans-Serif" font-size="11.00">+ try_pop(out: T&amp;) : bool</text>
<text text-anchor="start" x="365.5" y="-157.7" font-family="Helvetica,sans-Serif" font-size="11.00">+ capacity() : size_t</text>
</g>
<!-- Mutex&#45;&gt;Interface -->
<g id="edge2" class="edge">
<title>Mutex&#45;&gt;Interface</title>
<path fill="none" stroke="black" stroke-dasharray="5,2" d="M418.36,-147.41C410.52,-133.58 401.94,-119.6 393,-107 390.56,-103.55 387.94,-100.09 385.22,-96.66"/>
<polygon fill="none" stroke="black" points="387.78,-94.26 378.73,-88.75 382.37,-98.7 387.78,-94.26"/>
<text text-anchor="middle" x="454.5" y="-121" font-family="Helvetica,sans-Serif" font-size="10.00">satisfies</text>
<text text-anchor="middle" x="454.5" y="-110" font-family="Helvetica,sans-Serif" font-size="10.00">(static duck typing)</text>
</g>
<!-- StressTest -->
<g id="node4" class="node">
<title>StressTest</title>
<polygon fill="#f9fafb" stroke="#6b7280" points="318,-406 0,-406 0,-368 318,-368 318,-406"/>
<text text-anchor="start" x="11" y="-390.2" font-family="Helvetica,sans-Serif" font-size="11.00">{stress_test.cpp|+ run_stress_test&lt;QueueT&gt;() : bool</text>
<text text-anchor="middle" x="159" y="-378.2" font-family="Helvetica,sans-Serif" font-size="11.00">}</text>
</g>
<!-- StressTest&#45;&gt;LockFree -->
<g id="edge3" class="edge">
<title>StressTest&#45;&gt;LockFree</title>
<path fill="none" stroke="black" stroke-dasharray="1,5" d="M165.77,-367.74C170.9,-353.9 178.35,-333.79 185.99,-313.18"/>
<polygon fill="black" stroke="black" points="189.5,-303.69 190.25,-314.64 187.77,-308.38 186.03,-313.07 186.03,-313.07 186.03,-313.07 187.77,-308.38 181.81,-311.51 189.5,-303.69 189.5,-303.69"/>
<text text-anchor="middle" x="209" y="-342" font-family="Helvetica,sans-Serif" font-size="10.00">instantiates</text>
<text text-anchor="middle" x="209" y="-331" font-family="Helvetica,sans-Serif" font-size="10.00">&lt;uint64_t&gt;</text>
</g>
<!-- StressTest&#45;&gt;Mutex -->
<g id="edge4" class="edge">
<title>StressTest&#45;&gt;Mutex</title>
<path fill="none" stroke="black" stroke-dasharray="1,5" d="M212.94,-367.94C248.91,-355.03 297.02,-336.1 345.21,-310.24"/>
<polygon fill="black" stroke="black" points="354.2,-305.33 347.58,-314.07 349.81,-307.73 345.42,-310.12 345.42,-310.12 345.42,-310.12 349.81,-307.73 343.27,-306.17 354.2,-305.33 354.2,-305.33"/>
<text text-anchor="middle" x="335" y="-342" font-family="Helvetica,sans-Serif" font-size="10.00">instantiates</text>
<text text-anchor="middle" x="335" y="-331" font-family="Helvetica,sans-Serif" font-size="10.00">&lt;uint64_t&gt;</text>
</g>
<!-- Benchmark -->
<g id="node5" class="node">
<title>Benchmark</title>
<polygon fill="#f9fafb" stroke="#6b7280" points="698.5,-406 335.5,-406 335.5,-368 698.5,-368 698.5,-406"/>
<text text-anchor="start" x="346.5" y="-390.2" font-family="Helvetica,sans-Serif" font-size="11.00">{benchmark.cpp|+ run_benchmark&lt;QueueT&gt;() : BenchResult</text>
<text text-anchor="middle" x="517" y="-378.2" font-family="Helvetica,sans-Serif" font-size="11.00">}</text>
</g>
<!-- Benchmark&#45;&gt;LockFree -->
<g id="edge5" class="edge">
<title>Benchmark&#45;&gt;LockFree</title>
<path fill="none" stroke="black" stroke-dasharray="1,5" d="M474.71,-367.83C461.64,-362.16 447.21,-355.86 434,-350 394.74,-332.56 383.86,-330.3 346,-310 345.16,-309.55 344.32,-309.1 343.48,-308.64"/>
<polygon fill="black" stroke="black" points="334.38,-303.63 345.31,-304.51 338.76,-306.05 343.14,-308.46 343.14,-308.46 343.14,-308.46 338.76,-306.05 340.97,-312.4 334.38,-303.63 334.38,-303.63"/>
<text text-anchor="middle" x="463" y="-342" font-family="Helvetica,sans-Serif" font-size="10.00">instantiates</text>
<text text-anchor="middle" x="463" y="-331" font-family="Helvetica,sans-Serif" font-size="10.00">&lt;uint64_t&gt;</text>
</g>
<!-- Benchmark&#45;&gt;Mutex -->
<g id="edge6" class="edge">
<title>Benchmark&#45;&gt;Mutex</title>
<path fill="none" stroke="black" stroke-dasharray="1,5" d="M510.12,-367.74C505.41,-355.26 498.78,-337.68 491.83,-319.23"/>
<polygon fill="black" stroke="black" points="488.28,-309.83 496.02,-317.6 490.05,-314.51 491.81,-319.19 491.81,-319.19 491.81,-319.19 490.05,-314.51 487.6,-320.77 488.28,-309.83 488.28,-309.83"/>
<text text-anchor="middle" x="531" y="-342" font-family="Helvetica,sans-Serif" font-size="10.00">instantiates</text>
<text text-anchor="middle" x="531" y="-331" font-family="Helvetica,sans-Serif" font-size="10.00">&lt;uint64_t&gt;</text>
</g>
</g>
</svg>
